<svg viewBox="0 0 146 59" version="1.1" xmlns="http://www.w3.org/2000/svg" xmlns:xlink="http://www.w3.org/1999/xlink">
	<g id="logosvg-complete" transform="translate(0.000000, -1.000000)" fill-rule="nonzero">
		<g id="logosvg-by" transform="translate(54.000000, 41.000000)" fill="#E5411B">
			<path d="M81.2,5.1 C80.5,4.5 79.6,4.2 78.7,4.3 C77.6,4.3 76.6,4.8 75.8,5.5 L75.9,4.5 L73.5,4.5 L72.2,15 L74.7,15 L75.3,10 C75.3,9.6 75.4,9.2 75.5,8.9 C75.6,8.6 75.6,8.3 75.7,8.1 C75.9,7.7 76.2,7.3 76.5,7 C77,6.6 77.5,6.4 78.1,6.4 C79.1,6.4 79.6,6.9 79.6,7.8 C79.6,7.9 79.6,8.1 79.6,8.3 C79.6,8.5 79.6,8.7 79.5,8.9 L78.7,15 L81.1,15 L81.8,9.4 C81.9,8.8 81.9,8.1 81.9,7.5 C82.1,6.6 81.8,5.8 81.2,5.1 Z"></path>
			<path d="M66.7,15 L68,4.5 L70.5,4.5 L69.2,15 L66.7,15 Z M69.4,0.8 C69.8,0.7 70.1,0.9 70.3,1.2 C70.6,1.5 70.7,1.8 70.7,2.2 C70.7,2.5 70.6,2.9 70.3,3.1 C69.8,3.6 69,3.6 68.5,3.1 C68.2,2.8 68.1,2.5 68.1,2.1 C68.1,1.8 68.2,1.4 68.5,1.2 C68.7,0.9 69.1,0.8 69.4,0.8 Z"></path>
			<path d="M62.3,6.2 C63,6.3 63.6,6.6 64.1,7.1 L65.5,5.7 C64.7,4.8 63.5,4.2 62.2,4.2 C61.2,4.2 60.3,4.5 59.5,5.1 C58.8,5.7 58.5,6.6 58.5,7.5 C58.5,8.1 58.6,8.6 59,9.1 C59.4,9.6 60,10.1 60.6,10.4 C61,10.6 61.4,10.8 61.7,11 C61.9,11.1 62.1,11.3 62.2,11.4 C62.4,11.6 62.5,11.9 62.5,12.2 C62.5,12.5 62.4,12.8 62.1,13.1 C61.8,13.3 61.5,13.4 61.1,13.4 C60.3,13.3 59.5,12.9 59,12.2 L57.4,13.3 C58.2,14.6 59.7,15.4 61.2,15.4 C62.2,15.4 63.2,15.1 63.9,14.5 C64.6,13.9 64.9,13 64.9,12.1 C64.9,11.5 64.7,10.9 64.4,10.4 C63.9,9.8 63.2,9.3 62.5,9 C62,8.8 61.6,8.5 61.2,8.1 C61,7.9 60.9,7.6 60.9,7.3 C60.9,7 61,6.7 61.3,6.5 C61.7,6.3 62,6.2 62.3,6.2 Z"></path>
			<path d="M52.6,15 L53.9,4.5 L56.3,4.5 L55.1,15 L52.6,15 Z M55.3,0.8 C55.6,0.7 56,0.9 56.2,1.2 C56.5,1.5 56.6,1.8 56.6,2.2 C56.6,2.5 56.5,2.9 56.2,3.1 C55.7,3.6 54.9,3.6 54.4,3.1 C54.1,2.8 54,2.5 54,2.1 C54,1.8 54.2,1.4 54.4,1.2 C54.6,0.9 55,0.8 55.3,0.8 Z"></path>
			<path d="M46.9,12.1 C46.3,12.8 45.5,13.2 44.6,13.2 C43.8,13.2 43.1,12.9 42.6,12.3 C42.1,11.7 41.8,10.9 41.8,10 C41.8,9 42.1,8.1 42.7,7.3 C43.3,6.6 44.1,6.2 45,6.2 C45.8,6.2 46.5,6.5 47.1,7.1 C47.6,7.7 47.9,8.5 47.9,9.3 C47.9,10.4 47.6,11.4 46.9,12.1 Z M48.3,5.9 C47.8,5.4 47.3,4.9 46.7,4.6 C46.1,4.3 45.4,4.2 44.8,4.2 C43.3,4.1 41.9,4.8 40.9,5.9 C39.9,7.1 39.3,8.6 39.4,10.1 C39.3,11.4 39.8,12.8 40.7,13.8 C41.6,14.7 42.8,15.3 44.1,15.2 C45.3,15.2 46.5,14.7 47.4,13.8 L47.3,14.9 L49.7,14.9 L51,4.4 L48.5,4.4 C48.5,4.5 48.3,5.9 48.3,5.9 Z"></path>
			<path d="M34.6,4.5 L32.1,4.5 L30.8,15 L33.3,15 L33.9,9.8 C34,9.3 34,8.8 34.2,8.3 C34.3,7.9 34.4,7.6 34.6,7.3 C34.8,7.1 35,6.9 35.2,6.7 C35.5,6.6 35.7,6.5 36,6.5 C36.5,6.5 37,6.7 37.4,7.1 L39,5.1 C38.5,4.6 37.7,4.3 37,4.3 C36,4.4 35.1,4.8 34.5,5.4 L34.6,4.5 Z"></path>
			<polygon points="15.1 4.5 12.5 4.5 16.2 13.7 13.5 18.5 16.3 18.5 24.3 4.5 21.5 4.5 17.7 11.2"></polygon>
			<path d="M8.3,12.1 C7.7,12.8 6.8,13.2 5.9,13.2 C5.1,13.2 4.3,12.9 3.8,12.3 C3.2,11.7 3,10.9 3,10.1 C3,9.1 3.3,8.1 4,7.4 C4.6,6.7 5.5,6.3 6.4,6.3 C7.2,6.3 8,6.6 8.6,7.2 C9.2,7.8 9.5,8.6 9.4,9.5 C9.4,10.5 9,11.4 8.3,12.1 Z M6.9,4.3 C6.4,4.3 5.8,4.4 5.3,4.5 C4.7,4.8 4.1,5.1 3.6,5.5 L4.1,0.8 L1.6,0.8 L0,15 L2.5,15 L2.7,13.6 C3.7,14.7 5,15.3 6.4,15.3 C7.9,15.3 9.3,14.7 10.3,13.6 C11.4,12.5 11.9,11 11.9,9.5 C11.9,8.1 11.4,6.8 10.5,5.8 C9.5,4.8 8.2,4.3 6.9,4.3 Z"></path>
		</g>
		<g id="logosvg-logo" transform="translate(38.000000, 0.000000)" fill="#0E3653">
			<path d="M102.9,25.9 C100.2,25.9 98.1,28.1 98.1,30.7 C98.1,33.3 100.3,35.5 102.9,35.5 C105.6,35.5 107.7,33.3 107.7,30.7 C107.7,28 105.5,25.9 102.9,25.9 Z"></path>
			<path d="M78.9,35 L78.9,12.5 L87.1,12.5 L87.1,35 L78.9,35 Z M92.4,11.8 C95.1,11.8 97.2,13.9 97.2,16.6 C97.2,19.2 95.1,21.4 92.4,21.4 C89.8,21.4 87.6,19.3 87.6,16.6 C87.6,14 89.7,11.8 92.4,11.8 Z"></path>
			<path d="M58.3,35 L58.3,12.5 L66.5,12.5 L66.5,35 L58.3,35 Z M71.9,11.8 C74.5,11.8 76.7,13.9 76.7,16.6 C76.7,19.3 74.6,21.4 71.9,21.4 C69.2,21.4 67.1,19.3 67.1,16.6 C67.1,13.9 69.2,11.8 71.9,11.8 Z"></path>
			<path d="M53.8,35 L45.6,35 L45.6,12.5 L53.8,12.5 L53.8,35 Z M49.7,1 C52.3,1 54.5,3.2 54.5,5.8 C54.5,8.4 52.4,10.6 49.7,10.6 C47.1,10.6 44.9,8.5 44.9,5.8 C44.9,3.2 47,1 49.7,1 Z"></path>
			<path d="M28.6,28.5 C25.9,28.5 23.8,26.3 23.8,23.7 C23.8,21.1 26,18.9 28.6,18.9 C31.3,18.9 33.4,21.1 33.4,23.7 C33.4,26.3 31.3,28.5 28.6,28.5 C28.6,28.5 28.6,28.5 28.6,28.5 Z M33.5,14.5 C31.9,12.7 29.5,11.7 27,11.8 C20.9,11.8 16.3,17 16.3,23.8 C16.3,30.6 20.8,35.6 26.9,35.6 C29.4,35.7 31.8,34.8 33.5,33.1 L33.5,35.1 L41,35.1 L41,12.5 L33.5,12.5 L33.5,14.5 Z"></path>
			<path d="M15.4,18.7 L15.4,11.8 L10.8,11.8 L10.8,11.5 C10.7,10.9 10.9,10.3 11.3,9.7 C12.1,8.8 13.4,8.3 14.6,8.4 C15.4,8.5 16.2,8.6 16.9,8.7 L16.9,1.7 C15.5,1.2 14,0.9 12.5,1 C9.5,1 6.6,1.8 4.8,3.8 C2.9,6 2.7,8.5 2.7,11.5 L2.7,11.7 L0.4,11.7 L0.4,18.7 L2.4,18.7 L2.7,18.7 L2.7,35 L10.8,35 L10.8,18.7 L15.4,18.7 Z"></path>
		</g>
		<path d="M16.9,1.1 C7.6,1.1 0,8.7 0,18 C0,21.4 1,24.8 3,27.6 L12.6,18 L4.6,18 L4.6,11.9 L23,11.9 L23,30.3 L17,30.3 L17,22.3 L7.3,31.9 C15,37.2 25.5,35.2 30.8,27.5 C36.1,19.8 34.1,9.3 26.4,4 C23.7,2.1 20.3,1.1 16.9,1.1 Z" id="logosvg-icon" fill="#E5411B"></path>
	</g>
</svg>
